<svg id="Layer_1" data-name="Layer 1" xmlns="http://www.w3.org/2000/svg" xmlns:xlink="http://www.w3.org/1999/xlink" viewBox="0 0 1200 404"><defs><style>.cls-1,.cls-14,.cls-16,.cls-17,.cls-20,.cls-21,.cls-31,.cls-44{fill:none;}.cls-2{clip-path:url(#clip-path);}.cls-3{fill:url(#radial-gradient);}.cls-4{fill:url(#linear-gradient);}.cls-5{fill:url(#linear-gradient-2);}.cls-6{fill:url(#linear-gradient-3);}.cls-7{fill:url(#linear-gradient-4);}.cls-8{fill:#fff;}.cls-9{fill:#b4d6e6;}.cls-10,.cls-33,.cls-46{fill:#c8cde8;}.cls-11{fill:#d8ddf0;}.cls-12,.cls-22,.cls-24{fill:#3e56a6;}.cls-13{fill:#31498a;}.cls-14{stroke:#31498a;stroke-width:0.48px;}.cls-14,.cls-16,.cls-17,.cls-20,.cls-21,.cls-31,.cls-44{stroke-miterlimit:10;}.cls-15{fill:#4b54a4;}.cls-16,.cls-17{stroke:#ef4c88;}.cls-16{stroke-width:0.5px;}.cls-17{stroke-width:0.54px;}.cls-18{fill:#334882;}.cls-19{fill:#4b5159;}.cls-20,.cls-21{stroke:#4b5159;}.cls-20{stroke-width:2.15px;}.cls-21{stroke-width:2.04px;}.cls-22{opacity:0.2;}.cls-23,.cls-26{fill:#141f31;}.cls-24,.cls-42{opacity:0.14;}.cls-25{fill:#f1bf5e;}.cls-26{opacity:0.06;}.cls-27{fill:#52494b;}.cls-28{fill:#f2af34;}.cls-29{fill:#f3bd66;}.cls-30{fill:#e99123;}.cls-31{stroke:#f2af34;stroke-width:2.72px;}.cls-32{fill:#777275;}.cls-33,.cls-44,.cls-45{opacity:0.29;}.cls-34{fill:#ee2927;opacity:0.75;}.cls-35{fill:#7f52a1;}.cls-36{fill:#4779bc;}.cls-37{fill:#52a668;}.cls-38{fill:#e14b9b;}.cls-39{fill:#2e3192;}.cls-40{fill:#ef4c88;}.cls-41{fill:#fbb040;}.cls-42{fill:#6d6e71;}.cls-43{fill:#f38b66;}.cls-44{stroke:#c8cde8;stroke-width:0.9px;stroke-dasharray:10.76 21.53;}.cls-46{opacity:0.18;}</style><clipPath id="clip-path"><rect class="cls-1" x="-1.34" width="1200" height="404"/></clipPath><radialGradient id="radial-gradient" cx="188.8" cy="274.98" r="478.13" gradientTransform="translate(161.84 -55.77) scale(1.36 1.13)" gradientUnits="userSpaceOnUse"><stop offset="0.04" stop-color="#3e56a6"/><stop offset="0.92" stop-color="#31498a"/></radialGradient><linearGradient id="linear-gradient" x1="-77.89" y1="448.2" x2="-77.89" y2="-191.27" gradientUnits="userSpaceOnUse"><stop offset="0" stop-color="#3e56a6"/><stop offset="0.93" stop-color="#31498a"/></linearGradient><linearGradient id="linear-gradient-2" x1="564.47" y1="370.93" x2="122.65" y2="812.75" xlink:href="#linear-gradient"/><linearGradient id="linear-gradient-3" x1="1096.23" y1="898.9" x2="1096.23" y2="259.42" gradientTransform="translate(134.85 -1174.34) rotate(38.17)" xlink:href="#linear-gradient"/><linearGradient id="linear-gradient-4" x1="1841.61" y1="-467.81" x2="1324.93" y2="427.09" xlink:href="#linear-gradient"/></defs><title>Artboard 18</title><g class="cls-2"><path class="cls-3" d="M1246,474l-161.64,35.39H792l-145.26,0h-40l-550.51,0H-447l1.9-37,.28-5.51V0H1033.05l1.52,8c13.1,68.44,171.51,336.47,236.42,399C1295,430.13,1281.53,466.21,1246,474Z"/><path class="cls-4" d="M-220.88-162.32c153.09-76.93,369.91,6.76,429,165,54.8,146.8-52.71,286.73-70.5,309-14.72,18.41-121.8,152.4-265.49,135-157.29-19.06-269.47-208.77-249-373.48C-375.16,59.4-353.33-95.77-220.88-162.32Z"/><path class="cls-5" d="M211.33,315c153.09-76.92,369.91,6.77,429,165,54.8,146.8-52.71,286.72-70.5,309-14.71,18.41-121.8,152.4-265.48,135C147,904.89,34.85,715.17,55.34,550.46,57.05,536.7,78.88,381.53,211.33,315Z"/><path class="cls-6" d="M706.06-358.54C874-324.41,992.7-124.63,941.36,36.28,893.72,185.56,722.73,229.13,695,235.63c-23,5.38-189.94,44.55-292.15-57.94C291,65.51,320-153,437.9-269.8,447.75-279.57,560.81-388.07,706.06-358.54Z"/><path class="cls-7" d="M1258.37-278.32c-132.85,100.73-346.7,321.24-288.85,447C1038.87,319.35,1423,488,1500.13,233.17c135.16-446.44,792.88-408,767.65-453.4C2234.86-279.45,1573.66,103.14,1487.57-25c-57.34-85.34,190.58-322.5,135-388.86C1580-464.72,1390.12-378.2,1258.37-278.32Z"/><path class="cls-8" d="M867.5,141.74c9.48-13.12,41-52.37,95-61.23,53-8.7,125.36,12.27,152.44,75.26,25.87,60.18,4.29,125.54-44.92,147.52-36.67,16.37-106.34,24.9-152.35,7.33-44-16.79-65.81-40.41-74.59-76.53C832.36,189.82,860.05,152,867.5,141.74Z"/><polygon class="cls-9" points="964.1 275.47 966.09 284.54 972.2 284.54 970.82 271.05 964.1 269.62 964.1 275.47"/><polygon class="cls-9" points="996.74 278.17 994.94 286.4 989.39 286.4 989.94 273.83 996.74 272.86 996.74 278.17"/><rect class="cls-10" x="876.4" y="111.54" width="57.49" height="45.13"/><rect class="cls-11" x="877.92" y="112.73" width="54.46" height="42.75" rx="6.51" ry="6.51"/><path class="cls-12" d="M1007.25,197.65h0a35.78,35.78,0,0,0-.43-4.55,35.39,35.39,0,0,0-2.19-7.84,11.52,11.52,0,0,0-3-4.65h0a1.87,1.87,0,0,0-.32-.2,42.27,42.27,0,0,0-13.36-4.2h0a34.16,34.16,0,0,0-4.65-.31c-2.4,0-4.7.1-6.88.31h0A42.59,42.59,0,0,0,960,180.74l-.59.33-.06,0a21.59,21.59,0,0,0-4.42,3.36,14.72,14.72,0,0,0-4.49,10.62c-1.75,1.21-.7,6.07-.7,6.07-.28,1.35.72.52,1.66,1.53a7.55,7.55,0,0,1,1,1.7h0a17.72,17.72,0,0,1,1.33,4.43s0,0,0,0h0c0,.23.06.44.08.65h0a5.41,5.41,0,0,1,0,1.84,1.38,1.38,0,0,1-.16.39c6.9.06,45.11,4.35,45.11,4.35a16.1,16.1,0,0,0,5-4.66.35.35,0,0,0,0-.08l.06-.08a19.81,19.81,0,0,0,3-7.48,2.07,2.07,0,0,1,0-.22A29,29,0,0,0,1007.25,197.65ZM952.68,212a.64.64,0,0,0,.9-.23C952.62,211.76,952.27,211.83,952.68,212Z"/><circle class="cls-13" cx="978.18" cy="159.36" r="0.7"/><circle class="cls-13" cx="987.35" cy="159.18" r="0.7"/><path class="cls-14" d="M983,159.63a12.06,12.06,0,0,1,.36,4.33,1.57,1.57,0,0,1-2,1.25"/><path class="cls-14" d="M978.72,168.31s.24,1.59,3.63,1.73"/><path class="cls-13" d="M974.79,282c-3.66.62-7.28,2-11,1.86,0,0-5.34,4.49-10.19,5.42s-3.84,3.13-3.84,3.13l26.25-.51V289.1Z"/><polygon class="cls-15" points="949.5 291.83 950.01 293.71 976.27 292.77 976.27 291.08 949.5 291.83"/><circle class="cls-16" cx="978.18" cy="159.36" r="3.88"/><path class="cls-16" d="M991.25,157.38a2.29,2.29,0,0,1,1.72-.78,2.18,2.18,0,0,1,.89.18"/><path class="cls-17" d="M970.54,157.4a3,3,0,0,1,1.23-.27,3.11,3.11,0,0,1,2.61,1.5"/><circle class="cls-16" cx="987.71" cy="159.36" r="3.88"/><path class="cls-16" d="M981.91,158.93a3.79,3.79,0,0,1,1.18-.19,4,4,0,0,1,.78.08"/><path class="cls-18" d="M960,180.67c-6.66,4-17.16,15.54-17.16,15.54s-16.57,11.39-16.21,11.32c2.72-.55,8.77.8,8,2.6-1,2.33,18.51-6.57,19.54-6.21.59.2,0,0,0-.61C954.3,197.29,957.37,184.75,960,180.67Z"/><path class="cls-18" d="M1001.3,180.41c5.91,3.55,13.88,11.31,16.78,15.13,1.33,1.74,4.51,8.63,3.12,11.72-1.17,2.61-10.57,4.47-11.66,4.48-21.17.25-.29-9.17-.44-9.42C1007.23,199.29,1003.62,184,1001.3,180.41Z"/><rect class="cls-19" x="853.3" y="250.81" width="69.68" height="3.84" transform="translate(1140.87 -635.41) rotate(90)"/><rect class="cls-19" x="1036.09" y="250.81" width="69.68" height="3.84" transform="translate(1323.66 -818.2) rotate(90)"/><rect class="cls-10" x="953.7" y="185.24" width="53.12" height="26.06" rx="2.42" ry="2.42"/><path class="cls-20" d="M980.11,263s15.5-1.47,13,15.26"/><path class="cls-21" d="M979.18,263s-15.12-1.29-12.66,13.34"/><rect class="cls-19" x="960.6" y="256.45" width="37.46" height="2.25" transform="translate(1236.9 -721.75) rotate(90)"/><rect class="cls-19" x="962.36" y="236.64" width="33.92" height="3.87" rx="1.93" ry="1.93"/><ellipse class="cls-12" cx="982.14" cy="151.49" rx="13.36" ry="13.19"/><circle class="cls-9" cx="982.14" cy="176.67" r="5.81"/><polygon class="cls-9" points="987.86 177.63 976.33 177.14 976.33 171.35 987.94 171.35 987.86 177.63"/><polygon class="cls-22" points="976.33 170.61 976.33 172.55 987.94 176.09 987.94 169 976.33 170.61"/><rect class="cls-9" x="971.42" y="142.4" width="21.94" height="30.81" rx="10.97" ry="10.97"/><path class="cls-12" d="M973,156.15s13.07-13.31,13.84-7.27c.92,7.25,7.73,5.37,7.73,5.37L991.3,143.3s-2.28-4.92-7.38-4.57c-20.73,1.45-12.5,22.83-12.5,22.83Z"/><circle class="cls-9" cx="992.25" cy="158.46" r="2.54"/><path class="cls-12" d="M972.91,157.29s9.41-.62,14.22-7.1-2.9-6.47-2.9-6.47l-5.66,2.07-4.78,4.72-1.11,6.78Z"/><circle class="cls-9" cx="972.04" cy="159.62" r="2.54"/><rect class="cls-12" x="977.28" y="137.43" width="1.11" height="6.18" rx="0.08" ry="0.08" transform="translate(1920.01 437.56) rotate(-170.68)"/><rect class="cls-12" x="977.89" y="137.26" width="1.02" height="6.18" rx="0.07" ry="0.07" transform="translate(1522.87 -684.6) rotate(115.26)"/><rect class="cls-12" x="977.51" y="137.04" width="1.28" height="6.2" rx="0.1" ry="0.1" transform="translate(1882.53 -258.03) rotate(148.08)"/><rect class="cls-23" x="954.03" y="221.74" width="58.48" height="14.92" rx="0.8" ry="0.8"/><path class="cls-23" d="M1003.39,222.6s16.19,3.31,15.2,12-21.54,45.68-21.54,45.68H986.54L998,239.18,982.2,232V221.07Z"/><path class="cls-23" d="M956.54,223.18s-16.19,3.12-15.19,11.36,21.54,43.11,21.54,43.11H973.4L962,238.83l15.76-6.78V221.74Z"/><path class="cls-24" d="M956.12,211.3h48.28a2.42,2.42,0,0,0,2.42-2.42V187.66a2.42,2.42,0,0,0-2.42-2.42l-50.7,23.64A2.42,2.42,0,0,0,956.12,211.3Z"/><rect class="cls-19" x="886.22" y="217.89" width="186.62" height="4.09"/><rect class="cls-12" x="882.01" y="211.64" width="196.37" height="7.71"/><path class="cls-9" d="M927.36,208.08s3.88-.15,4.49-.08,2.19,1,2.09,1.53a1.18,1.18,0,0,1-.58.94L932,211a1.8,1.8,0,0,1-.46.1l-4.72.28c-.69,0-.8-.42-1-1.1s-.3-2.11,1-2.11Z"/><path class="cls-25" d="M934,211.54h-8.27c0-1.24,1.85-2.24,4.13-2.24S934,210.3,934,211.54Z"/><path class="cls-26" d="M934,211.54h-3.58c0-1.24-2.84-2.24-.56-2.24S934,210.3,934,211.54Z"/><rect class="cls-27" x="1046.79" y="206.54" width="21.17" height="4.9"/><path class="cls-28" d="M1057.38,188.2c.22,7.82-3.2,14-10.59,18.34H1068C1061,202.88,1057.66,196.62,1057.38,188.2Z"/><path class="cls-29" d="M1057.38,188.2c.22,7.82-.49,14-7.88,18.34H1068C1061,202.88,1057.66,196.62,1057.38,188.2Z"/><path class="cls-28" d="M1057.38,188.2c.22,7.82.29,12.66-5.16,18.34H1068C1061,202.88,1057.66,196.62,1057.38,188.2Z"/><path class="cls-30" d="M1057.38,188.2c.22,7.82,0,9.86,5.59,18.34h5C1061,202.88,1057.66,196.62,1057.38,188.2Z"/><path class="cls-31" d="M1035.7,170.76c0,10,9.7,18.11,21.67,18.11s21.67-8.11,21.67-18.11Z"/><path class="cls-30" d="M1073.88,164.69c-1.64,13.94-8.4,27.81-16.51,27.81,4.63,0,8.49-13.87,9.42-27.81Z"/><path class="cls-28" d="M1066.79,164.69c-.93,13.94-4.79,27.81-9.42,27.81-8,0-14.65-13.56-16.43-27.18,0-.21,0-.41-.07-.63Z"/><path class="cls-29" d="M1066.79,164.69c-.93,13.94-4.79,27.81-9.42,27.81-6,0-11.1-13.56-12.44-27.18l-.06-.63Z"/><path class="cls-28" d="M1066.79,164.69c-.93,13.94-4.79,27.81-9.42,27.81s-8.35-13.56-9.38-27.18l0-.63Z"/><rect class="cls-32" x="1049.51" y="206.54" width="2.72" height="4.9"/><path class="cls-14" d="M978.77,168s.24,1.59,3.63,1.73"/><polygon class="cls-33" points="933.89 156.67 876.4 111.54 933.89 111.54 933.89 156.67"/><polygon class="cls-34" points="920.71 162.19 919.2 160.18 917.7 162.19 917.7 149.49 920.71 149.49 920.71 162.19"/><polygon class="cls-12" points="923.71 162.19 922.21 160.18 920.71 162.19 920.71 149.49 923.71 149.49 923.71 162.19"/><circle class="cls-28" cx="920.7" cy="149.16" r="6.01"/><path class="cls-29" d="M920.7,155.17a6,6,0,0,1,0-12Z"/><rect class="cls-35" x="1033.18" y="136.75" width="9.53" height="3.92" transform="translate(1802.35 854.43) rotate(-144.5)"/><rect class="cls-36" x="1064.8" y="134.56" width="10.5" height="4.79" transform="translate(1747.12 -702.9) rotate(121.58)"/><rect class="cls-25" x="1087.54" y="100.51" width="12.07" height="4.97" transform="translate(207.49 752.11) rotate(-41.61)"/><rect class="cls-25" x="1072.13" y="114.2" width="12.07" height="4.97" transform="translate(1356.61 1164.78) rotate(-111.05)"/><path class="cls-35" d="M1029.36,120.6s-.07,0-.08,0c-.29-2.75-2.1-4.13-5-4.58-3,0-4.51-1.7-4.95-4.67l2.47-2.63c.45,3,2,4.66,5,4.68,2.88.45,4.7,1.86,5,4.68Z"/><path class="cls-37" d="M1083.52,145.26s0-.07,0-.07c2.75-.29,4.14-2.1,4.58-4.95,0-3,1.71-4.52,4.68-5l2.62,2.48c-3,.44-4.65,2-4.67,5-.45,2.88-1.86,4.69-4.68,4.95Z"/><path class="cls-35" d="M1055.29,92.44a0,0,0,0,1,0-.07c2-2,1.91-4.23.48-6.73-1.84-2.33-1.5-4.58.54-6.79l3.6.29c-2,2.2-2.39,4.46-.55,6.79,1.46,2.53,1.5,4.83-.54,6.79Z"/><path class="cls-38" d="M1051.9,111.52h0c2.75-1.52,3.35-4.32,3.67-7.5a9.81,9.81,0,0,1,3.68-7.5l4,1.94v0a10.68,10.68,0,0,0-3.67,7.49c-.31,3-1.24,5.79-3.67,7.5Z"/><rect class="cls-39" x="1037.66" y="120.2" width="9.53" height="3.92" transform="translate(1363.21 -877.18) rotate(101.11)"/><rect class="cls-25" x="1063.61" y="150.41" width="12.07" height="4.97" transform="translate(80.87 588.61) rotate(-31.92)"/><rect class="cls-37" x="1043.99" y="154.45" width="10.81" height="4.45" transform="translate(1978.79 668.54) rotate(-159.65)"/><rect class="cls-40" x="1059.84" y="117.53" width="10.84" height="4.46" transform="translate(688.1 1123.2) rotate(-75.81)"/><path class="cls-35" d="M1101.84,123.89a0,0,0,0,1-.08,0c-1.13-2.53-3.28-3.28-6.12-2.82-2.83.9-4.82-.22-6.17-2.9l1.54-3.27c1.35,2.69,3.34,3.81,6.17,2.91,2.88-.47,5,.31,6.16,2.91Z"/><polygon class="cls-41" points="1094 92.75 1094.73 86.83 1090.82 82.31 1090.1 88.24 1094 92.75 1094 92.75"/><polygon class="cls-42" points="1094 92.75 1094.73 86.83 1090.82 82.31 1094 92.75 1094 92.75"/><polygon class="cls-41" points="1092.84 88.94 1096.47 86.3 1091.98 86.12 1088.36 88.77 1092.84 88.94"/><polygon class="cls-42" points="1092.84 88.94 1096.47 86.3 1088.56 88.71 1092.84 88.94"/><polygon class="cls-41" points="1079.9 136.47 1084.6 132.79 1085.03 126.84 1080.33 130.51 1079.9 136.47 1079.9 136.47"/><polygon class="cls-42" points="1079.9 136.47 1084.6 132.79 1085.03 126.84 1079.9 136.47 1079.9 136.47"/><polygon class="cls-41" points="1081.77 132.96 1086.2 133.65 1083.16 130.35 1078.72 129.66 1081.77 132.96"/><polygon class="cls-42" points="1081.77 132.96 1086.2 133.65 1078.91 129.76 1081.77 132.96"/><polygon class="cls-41" points="1048.4 99.96 1049.39 94.07 1045.69 89.39 1044.7 95.28 1048.4 99.96 1048.4 99.96"/><polygon class="cls-42" points="1048.4 99.96 1049.39 94.07 1045.69 89.39 1048.4 99.96 1048.4 99.96"/><polygon class="cls-41" points="1047.41 96.1 1051.15 93.62 1046.68 93.25 1042.94 95.73 1047.41 96.1"/><polygon class="cls-42" points="1047.41 96.1 1051.15 93.62 1043.14 95.67 1047.41 96.1"/><polygon class="cls-41" points="1024.13 138.15 1027.47 143.11 1033.38 143.96 1030.05 139 1024.13 138.15 1024.13 138.15"/><polygon class="cls-42" points="1024.13 138.15 1027.47 143.11 1033.38 143.96 1024.13 138.15 1024.13 138.15"/><polygon class="cls-41" points="1027.51 140.27 1026.51 144.64 1030.01 141.84 1031.01 137.46 1027.51 140.27"/><polygon class="cls-42" points="1027.51 140.27 1026.51 144.64 1030.9 137.64 1027.51 140.27"/><path class="cls-43" d="M1026,86.67c-.08,3.15,2,5.08,4.63,7a9.81,9.81,0,0,1,4.62,7l-3.68,2.45a10.75,10.75,0,0,0-4.62-7c-2.44-1.78-4.38-4-4.63-6.95Z"/><path class="cls-37" d="M1071,86.36c-.26,3.13,1.75,5.18,4.22,7.2a9.79,9.79,0,0,1,4.23,7.19l-3.81,2.24a10.74,10.74,0,0,0-4.23-7.2c-2.33-1.91-4.15-4.23-4.23-7.19Z"/><path class="cls-43" d="M1053.19,150.11c1-3-.45-5.45-2.36-8a9.79,9.79,0,0,1-2.36-8l4.24-1.25a10.74,10.74,0,0,0,2.36,8c1.81,2.42,3,5.11,2.37,8Z"/><rect class="cls-37" x="1033.19" y="104.41" width="11.28" height="4.64" transform="translate(1933.68 -431.59) rotate(143.1)"/><path class="cls-13" d="M988.16,283.27a6.84,6.84,0,0,0,8.27.42s1.78,6.23.4,9.5-10.81-.63-10.81-.63A21.69,21.69,0,0,1,988.16,283.27Z"/><polygon class="cls-15" points="997.23 292.6 997.14 294.83 985.92 294.3 985.82 292.3 997.23 292.6"/><ellipse class="cls-24" cx="980.84" cy="292.3" rx="72.04" ry="12.47"/><path class="cls-44" d="M1337.85,159.47C1294,340,933.73,267.66,861.37,459.33"/><path class="cls-44" d="M30.53-28.26c46.65,93.63-16.46,177.71,0,263.91,11,57.9,98.72,202.55,26.47,282.09"/><path class="cls-44" d="M715.27-41.58C727.22,3,767.84,74.29,744.61,98.63c-95.29,99.79-260.81-115-352,110.58-16.83,41.62-26.19,80.71-23.33,132.26v0c4.33,78.23,33.31,164,87.64,213.27"/><rect class="cls-1" width="1200" height="404"/><g class="cls-45"><path class="cls-46" d="M472.51,349.45l12.69,1.69a1.63,1.63,0,0,1,.94,2.66l-11.86,14a1.41,1.41,0,0,1-1.25.5l-11.18-1.45a1.59,1.59,0,0,1-1.32-1.78l.64-6C461.8,353,466.87,348.7,472.51,349.45Z"/><path class="cls-10" d="M455.1,380.58,447,365.24a1.31,1.31,0,0,1,.36-1.67l17.39-12.36s-4.5,3.08-4.57,15.3a.57.57,0,0,0,0,.13l-1.39,13.17a1.22,1.22,0,0,1-.92,1.08l-1.46.32A1.16,1.16,0,0,1,455.1,380.58Z"/><path class="cls-46" d="M429.72,359.75l5.22-12.45a1.43,1.43,0,0,1,2.63-.1l8.86,16.69a1.69,1.69,0,0,1,.07,1.44l-4.56,11a1.41,1.41,0,0,1-1.95.77l-5.11-2.6A11.62,11.62,0,0,1,429.72,359.75Z"/><path class="cls-10" d="M452.32,388.08l-15.94,3.36a1.19,1.19,0,0,1-1.37-.91L429.2,368.7s1.4,5.61,12.17,9.65l.11,0,11.23,5.7a1.33,1.33,0,0,1,.68,1.29l-.15,1.6A1.19,1.19,0,0,1,452.32,388.08Z"/><path class="cls-46" d="M426.26,406.93l-9.46-9.39a1.61,1.61,0,0,1,.68-2.71l17.34-3.67a1.43,1.43,0,0,1,1.3.39l8.36,8.24a1.69,1.69,0,0,1,.11,2.26l-3.79,4.39A9.79,9.79,0,0,1,426.26,406.93Z"/><path class="cls-10" d="M457.51,393.07l-1.72,17.41a1.18,1.18,0,0,1-1.2,1.11l-21-1.13s5.36.39,12.09-9.33a.86.86,0,0,1,.07-.1l8.34-9.65a1.08,1.08,0,0,1,1.33-.28l1.37.66A1.32,1.32,0,0,1,457.51,393.07Z"/><path class="cls-10" d="M463.84,389.28l14.88,7.41a1.31,1.31,0,0,1,.62,1.59l-7.16,21.13s1.92-5.36-4.69-15.42l-.06-.11-6.08-11.66a1.34,1.34,0,0,1,.14-1.46l1-1.19A1.12,1.12,0,0,1,463.84,389.28Z"/><path class="cls-46" d="M495.5,390.26l2.62,13.5a1.48,1.48,0,0,1-2,1.74l-16.2-8.05a1.59,1.59,0,0,1-.84-1.13l-2.36-11.88a1.56,1.56,0,0,1,1.15-1.87l5.5-1.11C488.89,380.32,494.33,384.26,495.5,390.26Z"/><path class="cls-10" d="M462.35,381.57l10.91-12.84a1.1,1.1,0,0,1,1.59-.12l16.56,14.18s-4.18-3.7-15-.19l-.12,0-12.09,2.44a1.15,1.15,0,0,1-1.24-.62l-.76-1.4A1.33,1.33,0,0,1,462.35,381.57Z"/><path class="cls-46" d="M472.51,349.45l12.69,1.69a1.63,1.63,0,0,1,.94,2.66l-11.86,14a1.41,1.41,0,0,1-1.25.5l-11.18-1.45a1.59,1.59,0,0,1-1.32-1.78l.64-6C461.8,353,466.87,348.7,472.51,349.45Z"/><path class="cls-10" d="M455.1,380.58,447,365.24a1.31,1.31,0,0,1,.36-1.67l17.39-12.36s-4.5,3.08-4.57,15.3a.57.57,0,0,0,0,.13l-1.39,13.17a1.22,1.22,0,0,1-.92,1.08l-1.46.32A1.16,1.16,0,0,1,455.1,380.58Z"/><path class="cls-46" d="M429.72,359.75l5.22-12.45a1.43,1.43,0,0,1,2.63-.1l8.86,16.69a1.69,1.69,0,0,1,.07,1.44l-4.56,11a1.41,1.41,0,0,1-1.95.77l-5.11-2.6A11.62,11.62,0,0,1,429.72,359.75Z"/><path class="cls-10" d="M452.32,388.08l-15.94,3.36a1.19,1.19,0,0,1-1.37-.91L429.2,368.7s1.4,5.61,12.17,9.65l.11,0,11.23,5.7a1.33,1.33,0,0,1,.68,1.29l-.15,1.6A1.19,1.19,0,0,1,452.32,388.08Z"/><path class="cls-46" d="M426.26,406.93l-9.46-9.39a1.61,1.61,0,0,1,.68-2.71l17.34-3.67a1.43,1.43,0,0,1,1.3.39l8.36,8.24a1.69,1.69,0,0,1,.11,2.26l-3.79,4.39A9.79,9.79,0,0,1,426.26,406.93Z"/><path class="cls-10" d="M457.51,393.07l-1.72,17.41a1.18,1.18,0,0,1-1.2,1.11l-21-1.13s5.36.39,12.09-9.33a.86.86,0,0,1,.07-.1l8.34-9.65a1.08,1.08,0,0,1,1.33-.28l1.37.66A1.32,1.32,0,0,1,457.51,393.07Z"/><path class="cls-10" d="M463.84,389.28l14.88,7.41a1.31,1.31,0,0,1,.62,1.59l-7.16,21.13s1.92-5.36-4.69-15.42l-.06-.11-6.08-11.66a1.34,1.34,0,0,1,.14-1.46l1-1.19A1.12,1.12,0,0,1,463.84,389.28Z"/><path class="cls-46" d="M495.5,390.26l2.62,13.5a1.48,1.48,0,0,1-2,1.74l-16.2-8.05a1.59,1.59,0,0,1-.84-1.13l-2.36-11.88a1.56,1.56,0,0,1,1.15-1.87l5.5-1.11C488.89,380.32,494.33,384.26,495.5,390.26Z"/><path class="cls-10" d="M462.35,381.57l10.91-12.84a1.1,1.1,0,0,1,1.59-.12l16.56,14.18s-4.18-3.7-15-.19l-.12,0-12.09,2.44a1.15,1.15,0,0,1-1.24-.62l-.76-1.4A1.33,1.33,0,0,1,462.35,381.57Z"/></g><g class="cls-45"><path class="cls-46" d="M201.08,285.81l18,2.41a2.33,2.33,0,0,1,1.34,3.78l-16.86,19.86a2,2,0,0,1-1.77.7l-15.89-2.05a2.27,2.27,0,0,1-1.87-2.53l.91-8.51C185.85,290.85,193.06,284.75,201.08,285.81Z"/><path class="cls-10" d="M176.34,330.05l-11.55-21.8a1.85,1.85,0,0,1,.51-2.37L190,288.32s-6.39,4.37-6.5,21.73a1.28,1.28,0,0,1,0,.19l-2,18.71a1.72,1.72,0,0,1-1.3,1.53l-2.07.46A1.68,1.68,0,0,1,176.34,330.05Z"/><path class="cls-46" d="M140.28,300.45l7.42-17.69a2,2,0,0,1,3.73-.14L164,306.34a2.36,2.36,0,0,1,.1,2L157.65,324a2,2,0,0,1-2.79,1.09l-7.25-3.68C140.26,317.68,137,308.32,140.28,300.45Z"/><path class="cls-10" d="M172.39,340.7l-22.64,4.77a1.69,1.69,0,0,1-1.95-1.29l-8.26-31s2,8,17.29,13.71l.16.07,15.95,8.1a1.87,1.87,0,0,1,1,1.82l-.21,2.28A1.71,1.71,0,0,1,172.39,340.7Z"/><path class="cls-46" d="M135.37,367.48l-13.44-13.34a2.29,2.29,0,0,1,1-3.86l24.63-5.21a2,2,0,0,1,1.84.56l11.89,11.7a2.39,2.39,0,0,1,.14,3.21L156,366.78A13.9,13.9,0,0,1,135.37,367.48Z"/><path class="cls-10" d="M179.76,347.78l-2.44,24.74a1.68,1.68,0,0,1-1.71,1.58l-29.81-1.61s7.62.55,17.18-13.26a1.34,1.34,0,0,1,.11-.14l11.83-13.71a1.57,1.57,0,0,1,1.9-.4l2,.95A1.87,1.87,0,0,1,179.76,347.78Z"/><path class="cls-46" d="M193.12,394.27l-15.73,9.44a2.14,2.14,0,0,1-3.12-2.24l2.63-26.93a2.21,2.21,0,0,1,1-1.7l13.83-8.38a2,2,0,0,1,2.87.89l3.93,7.54C202.54,380.51,200.11,390.07,193.12,394.27Z"/><path class="cls-10" d="M188.75,342.4l21.14,10.53a1.87,1.87,0,0,1,.88,2.26l-10.16,30s2.72-7.63-6.67-21.9l-.09-.16-8.64-16.58a1.88,1.88,0,0,1,.21-2.07l1.41-1.68A1.56,1.56,0,0,1,188.75,342.4Z"/><path class="cls-46" d="M233.73,343.8,237.45,363a2.11,2.11,0,0,1-2.9,2.48l-23-11.44a2.28,2.28,0,0,1-1.2-1.61L207,335.52a2.22,2.22,0,0,1,1.63-2.65l7.81-1.58C224.34,329.68,232.07,335.27,233.73,343.8Z"/><path class="cls-10" d="M186.64,331.44l15.5-18.24a1.58,1.58,0,0,1,2.26-.17l23.52,20.16s-5.93-5.26-21.3-.28l-.16,0-17.17,3.47a1.65,1.65,0,0,1-1.77-.88l-1.08-2A1.91,1.91,0,0,1,186.64,331.44Z"/><path class="cls-46" d="M201.08,285.81l18,2.41a2.33,2.33,0,0,1,1.34,3.78l-16.86,19.86a2,2,0,0,1-1.77.7l-15.89-2.05a2.27,2.27,0,0,1-1.87-2.53l.91-8.51C185.85,290.85,193.06,284.75,201.08,285.81Z"/><path class="cls-10" d="M176.34,330.05l-11.55-21.8a1.85,1.85,0,0,1,.51-2.37L190,288.32s-6.39,4.37-6.5,21.73a1.28,1.28,0,0,1,0,.19l-2,18.71a1.72,1.72,0,0,1-1.3,1.53l-2.07.46A1.68,1.68,0,0,1,176.34,330.05Z"/><path class="cls-46" d="M140.28,300.45l7.42-17.69a2,2,0,0,1,3.73-.14L164,306.34a2.36,2.36,0,0,1,.1,2L157.65,324a2,2,0,0,1-2.79,1.09l-7.25-3.68C140.26,317.68,137,308.32,140.28,300.45Z"/><path class="cls-10" d="M172.39,340.7l-22.64,4.77a1.69,1.69,0,0,1-1.95-1.29l-8.26-31s2,8,17.29,13.71l.16.07,15.95,8.1a1.87,1.87,0,0,1,1,1.82l-.21,2.28A1.71,1.71,0,0,1,172.39,340.7Z"/><path class="cls-46" d="M135.37,367.48l-13.44-13.34a2.29,2.29,0,0,1,1-3.86l24.63-5.21a2,2,0,0,1,1.84.56l11.89,11.7a2.39,2.39,0,0,1,.14,3.21L156,366.78A13.9,13.9,0,0,1,135.37,367.48Z"/><path class="cls-10" d="M179.76,347.78l-2.44,24.74a1.68,1.68,0,0,1-1.71,1.58l-29.81-1.61s7.62.55,17.18-13.26a1.34,1.34,0,0,1,.11-.14l11.83-13.71a1.57,1.57,0,0,1,1.9-.4l2,.95A1.87,1.87,0,0,1,179.76,347.78Z"/><path class="cls-46" d="M193.12,394.27l-15.73,9.44a2.14,2.14,0,0,1-3.12-2.24l2.63-26.93a2.21,2.21,0,0,1,1-1.7l13.83-8.38a2,2,0,0,1,2.87.89l3.93,7.54C202.54,380.51,200.11,390.07,193.12,394.27Z"/><path class="cls-10" d="M188.75,342.4l21.14,10.53a1.87,1.87,0,0,1,.88,2.26l-10.16,30s2.72-7.63-6.67-21.9l-.09-.16-8.64-16.58a1.88,1.88,0,0,1,.21-2.07l1.41-1.68A1.56,1.56,0,0,1,188.75,342.4Z"/><path class="cls-46" d="M233.73,343.8,237.45,363a2.11,2.11,0,0,1-2.9,2.48l-23-11.44a2.28,2.28,0,0,1-1.2-1.61L207,335.52a2.22,2.22,0,0,1,1.63-2.65l7.81-1.58C224.34,329.68,232.07,335.27,233.73,343.8Z"/><path class="cls-10" d="M186.64,331.44l15.5-18.24a1.58,1.58,0,0,1,2.26-.17l23.52,20.16s-5.93-5.26-21.3-.28l-.16,0-17.17,3.47a1.65,1.65,0,0,1-1.77-.88l-1.08-2A1.91,1.91,0,0,1,186.64,331.44Z"/></g><g class="cls-45"><path class="cls-46" d="M680.33-21.39l18,2.4a2.32,2.32,0,0,1,1.33,3.77L682.83,4.61a2,2,0,0,1-1.77.71L665.19,3.27A2.27,2.27,0,0,1,663.33.74l.9-8.5C665.12-16.37,672.32-22.46,680.33-21.39Z"/><path class="cls-10" d="M655.63,22.77,644.09,1a1.87,1.87,0,0,1,.51-2.37l24.67-17.53s-6.38,4.36-6.49,21.7a1.09,1.09,0,0,1,0,.18l-2,18.69a1.7,1.7,0,0,1-1.3,1.52l-2.07.46A1.66,1.66,0,0,1,655.63,22.77Z"/><path class="cls-46" d="M619.63-6.78,627-24.44a2,2,0,0,1,3.72-.14L643.33-.9a2.39,2.39,0,0,1,.1,2L637,16.73a2,2,0,0,1-2.77,1.08l-7.25-3.68C619.61,10.43,616.34,1.08,619.63-6.78Z"/><path class="cls-10" d="M651.68,33.41l-22.6,4.76a1.69,1.69,0,0,1-2-1.29l-8.24-31s2,8,17.26,13.69l.16.07,15.92,8.08a1.86,1.86,0,0,1,1,1.83L653,31.85A1.71,1.71,0,0,1,651.68,33.41Z"/><path class="cls-46" d="M614.72,60.15,601.3,46.83a2.3,2.3,0,0,1,1-3.86l24.6-5.2a2,2,0,0,1,1.83.56L640.57,50a2.37,2.37,0,0,1,.14,3.19l-5.37,6.23A13.89,13.89,0,0,1,614.72,60.15Z"/><path class="cls-10" d="M659,40.48l-2.43,24.7a1.67,1.67,0,0,1-1.71,1.57l-29.76-1.6s7.6.55,17.15-13.24a.76.76,0,0,1,.11-.14l11.82-13.69a1.56,1.56,0,0,1,1.89-.4l1.94,1A1.84,1.84,0,0,1,659,40.48Z"/><path class="cls-46" d="M672.38,86.9l-15.7,9.42a2.14,2.14,0,0,1-3.12-2.24l2.63-26.89a2.25,2.25,0,0,1,1-1.7L671,57.13a2,2,0,0,1,2.87.89l3.92,7.53C681.79,73.15,679.37,82.7,672.38,86.9Z"/><path class="cls-10" d="M668,35.11l21.1,10.5a1.88,1.88,0,0,1,.89,2.27l-10.15,30s2.71-7.61-6.66-21.86l-.09-.16-8.62-16.55a1.9,1.9,0,0,1,.2-2.07l1.41-1.68A1.56,1.56,0,0,1,668,35.11Z"/><path class="cls-46" d="M712.93,36.5l3.72,19.15a2.1,2.1,0,0,1-2.9,2.46l-23-11.41a2.28,2.28,0,0,1-1.19-1.61l-3.34-16.86a2.21,2.21,0,0,1,1.63-2.64l7.8-1.58C703.56,22.4,711.27,28,712.93,36.5Z"/><path class="cls-10" d="M665.91,24.16,681.39,6a1.57,1.57,0,0,1,2.25-.17l23.49,20.13s-5.92-5.26-21.27-.28l-.16,0-17.15,3.47a1.66,1.66,0,0,1-1.76-.88l-1.08-2A1.93,1.93,0,0,1,665.91,24.16Z"/><path class="cls-46" d="M680.33-21.39l18,2.4a2.32,2.32,0,0,1,1.33,3.77L682.83,4.61a2,2,0,0,1-1.77.71L665.19,3.27A2.27,2.27,0,0,1,663.33.74l.9-8.5C665.12-16.37,672.32-22.46,680.33-21.39Z"/><path class="cls-10" d="M655.63,22.77,644.09,1a1.87,1.87,0,0,1,.51-2.37l24.67-17.53s-6.38,4.36-6.49,21.7a1.09,1.09,0,0,1,0,.18l-2,18.69a1.7,1.7,0,0,1-1.3,1.52l-2.07.46A1.66,1.66,0,0,1,655.63,22.77Z"/><path class="cls-46" d="M619.63-6.78,627-24.44a2,2,0,0,1,3.72-.14L643.33-.9a2.39,2.39,0,0,1,.1,2L637,16.73a2,2,0,0,1-2.77,1.08l-7.25-3.68C619.61,10.43,616.34,1.08,619.63-6.78Z"/><path class="cls-10" d="M651.68,33.41l-22.6,4.76a1.69,1.69,0,0,1-2-1.29l-8.24-31s2,8,17.26,13.69l.16.07,15.92,8.08a1.86,1.86,0,0,1,1,1.83L653,31.85A1.71,1.71,0,0,1,651.68,33.41Z"/><path class="cls-46" d="M614.72,60.15,601.3,46.83a2.3,2.3,0,0,1,1-3.86l24.6-5.2a2,2,0,0,1,1.83.56L640.57,50a2.37,2.37,0,0,1,.14,3.19l-5.37,6.23A13.89,13.89,0,0,1,614.72,60.15Z"/><path class="cls-10" d="M659,40.48l-2.43,24.7a1.67,1.67,0,0,1-1.71,1.57l-29.76-1.6s7.6.55,17.15-13.24a.76.76,0,0,1,.11-.14l11.82-13.69a1.56,1.56,0,0,1,1.89-.4l1.94,1A1.84,1.84,0,0,1,659,40.48Z"/><path class="cls-46" d="M672.38,86.9l-15.7,9.42a2.14,2.14,0,0,1-3.12-2.24l2.63-26.89a2.25,2.25,0,0,1,1-1.7L671,57.13a2,2,0,0,1,2.87.89l3.92,7.53C681.79,73.15,679.37,82.7,672.38,86.9Z"/><path class="cls-10" d="M668,35.11l21.1,10.5a1.88,1.88,0,0,1,.89,2.27l-10.15,30s2.71-7.61-6.66-21.86l-.09-.16-8.62-16.55a1.9,1.9,0,0,1,.2-2.07l1.41-1.68A1.56,1.56,0,0,1,668,35.11Z"/><path class="cls-46" d="M712.93,36.5l3.72,19.15a2.1,2.1,0,0,1-2.9,2.46l-23-11.41a2.28,2.28,0,0,1-1.19-1.61l-3.34-16.86a2.21,2.21,0,0,1,1.63-2.64l7.8-1.58C703.56,22.4,711.27,28,712.93,36.5Z"/><path class="cls-10" d="M665.91,24.16,681.39,6a1.57,1.57,0,0,1,2.25-.17l23.49,20.13s-5.92-5.26-21.27-.28l-.16,0-17.15,3.47a1.66,1.66,0,0,1-1.76-.88l-1.08-2A1.93,1.93,0,0,1,665.91,24.16Z"/></g><g class="cls-45"><path class="cls-10" d="M133.82,0l-14-26.48a2.26,2.26,0,0,1,.62-2.88l30-21.33s-7.76,5.31-7.9,26.4a1.62,1.62,0,0,1,0,.22L140.1-1.35A2.09,2.09,0,0,1,138.52.51L136,1.06A2,2,0,0,1,133.82,0Z"/><path class="cls-10" d="M129,12.93,101.5,18.72a2.05,2.05,0,0,1-2.36-1.57l-10-37.67s2.41,9.67,21,16.65l.19.09,19.38,9.84a2.25,2.25,0,0,1,1.17,2.22L130.6,11A2.09,2.09,0,0,1,129,12.93Z"/><path class="cls-46" d="M84,45.46,67.7,29.25a2.79,2.79,0,0,1,1.18-4.69l29.93-6.32a2.43,2.43,0,0,1,2.23.68l14.44,14.21a2.89,2.89,0,0,1,.18,3.9l-6.54,7.57A16.89,16.89,0,0,1,84,45.46Z"/><path class="cls-10" d="M138,21.53l-3,30.05a2,2,0,0,1-2.08,1.92l-36.21-2s9.25.66,20.87-16.11l.13-.17,14.38-16.66a1.92,1.92,0,0,1,2.31-.49l2.36,1.16A2.25,2.25,0,0,1,138,21.53Z"/><path class="cls-46" d="M154.2,78,135.09,89.48a2.61,2.61,0,0,1-3.8-2.73L134.49,54A2.7,2.7,0,0,1,135.75,52l16.79-10.18A2.48,2.48,0,0,1,156,42.87L160.8,52C165.65,61.29,162.69,72.9,154.2,78Z"/><path class="cls-10" d="M148.89,15l25.68,12.79a2.26,2.26,0,0,1,1.07,2.75L163.29,67s3.31-9.26-8.1-26.6l-.11-.19L144.59,20.06a2.29,2.29,0,0,1,.25-2.52l1.71-2A1.91,1.91,0,0,1,148.89,15Z"/><path class="cls-46" d="M203.54,16.69,208.06,40a2.57,2.57,0,0,1-3.53,3L176.58,29.1a2.77,2.77,0,0,1-1.46-2L171.06,6.63a2.68,2.68,0,0,1,2-3.22l9.49-1.92C192.13-.47,201.52,6.33,203.54,16.69Z"/><path class="cls-10" d="M146.33,1.68l18.82-22.16a1.91,1.91,0,0,1,2.75-.21L196.48,3.8s-7.21-6.39-25.88-.34l-.2,0L149.54,7.73a2,2,0,0,1-2.15-1.07l-1.31-2.42A2.3,2.3,0,0,1,146.33,1.68Z"/><path class="cls-10" d="M133.82,0l-14-26.48a2.26,2.26,0,0,1,.62-2.88l30-21.33s-7.76,5.31-7.9,26.4a1.62,1.62,0,0,1,0,.22L140.1-1.35A2.09,2.09,0,0,1,138.52.51L136,1.06A2,2,0,0,1,133.82,0Z"/><path class="cls-10" d="M129,12.93,101.5,18.72a2.05,2.05,0,0,1-2.36-1.57l-10-37.67s2.41,9.67,21,16.65l.19.09,19.38,9.84a2.25,2.25,0,0,1,1.17,2.22L130.6,11A2.09,2.09,0,0,1,129,12.93Z"/><path class="cls-46" d="M84,45.46,67.7,29.25a2.79,2.79,0,0,1,1.18-4.69l29.93-6.32a2.43,2.43,0,0,1,2.23.68l14.44,14.21a2.89,2.89,0,0,1,.18,3.9l-6.54,7.57A16.89,16.89,0,0,1,84,45.46Z"/><path class="cls-10" d="M138,21.53l-3,30.05a2,2,0,0,1-2.08,1.92l-36.21-2s9.25.66,20.87-16.11l.13-.17,14.38-16.66a1.92,1.92,0,0,1,2.31-.49l2.36,1.16A2.25,2.25,0,0,1,138,21.53Z"/><path class="cls-46" d="M154.2,78,135.09,89.48a2.61,2.61,0,0,1-3.8-2.73L134.49,54A2.7,2.7,0,0,1,135.75,52l16.79-10.18A2.48,2.48,0,0,1,156,42.87L160.8,52C165.65,61.29,162.69,72.9,154.2,78Z"/><path class="cls-10" d="M148.89,15l25.68,12.79a2.26,2.26,0,0,1,1.07,2.75L163.29,67s3.31-9.26-8.1-26.6l-.11-.19L144.59,20.06a2.29,2.29,0,0,1,.25-2.52l1.71-2A1.91,1.91,0,0,1,148.89,15Z"/><path class="cls-46" d="M203.54,16.69,208.06,40a2.57,2.57,0,0,1-3.53,3L176.58,29.1a2.77,2.77,0,0,1-1.46-2L171.06,6.63a2.68,2.68,0,0,1,2-3.22l9.49-1.92C192.13-.47,201.52,6.33,203.54,16.69Z"/><path class="cls-10" d="M146.33,1.68l18.82-22.16a1.91,1.91,0,0,1,2.75-.21L196.48,3.8s-7.21-6.39-25.88-.34l-.2,0L149.54,7.73a2,2,0,0,1-2.15-1.07l-1.31-2.42A2.3,2.3,0,0,1,146.33,1.68Z"/></g><g class="cls-45"><path class="cls-46" d="M1169.92,316.74l21.65,2.89a2.79,2.79,0,0,1,1.6,4.53L1172.93,348a2.38,2.38,0,0,1-2.13.84l-19.08-2.46a2.73,2.73,0,0,1-2.24-3l1.08-10.23C1151.64,322.78,1160.29,315.46,1169.92,316.74Z"/><path class="cls-10" d="M1140.22,369.86l-13.88-26.17a2.25,2.25,0,0,1,.61-2.86l29.67-21.08s-7.67,5.25-7.8,26.1c0,.07,0,.14,0,.22l-2.38,22.47a2,2,0,0,1-1.56,1.84l-2.49.54A2,2,0,0,1,1140.22,369.86Z"/><path class="cls-46" d="M1096.92,334.31l8.91-21.23a2.43,2.43,0,0,1,4.47-.17l15.12,28.47a2.91,2.91,0,0,1,.13,2.46l-7.78,18.75a2.42,2.42,0,0,1-3.34,1.31l-8.72-4.43C1096.89,355,1093,343.77,1096.92,334.31Z"/><path class="cls-10" d="M1135.47,382.65l-27.19,5.73a2,2,0,0,1-2.34-1.55L1096,349.59s2.38,9.56,20.75,16.46l.2.09,19.15,9.72a2.23,2.23,0,0,1,1.16,2.2l-.25,2.72A2,2,0,0,1,1135.47,382.65Z"/><path class="cls-46" d="M1091,414.81l-16.14-16a2.75,2.75,0,0,1,1.16-4.63l29.59-6.26a2.42,2.42,0,0,1,2.2.67l14.28,14.06a2.86,2.86,0,0,1,.17,3.85l-6.46,7.49A16.69,16.69,0,0,1,1091,414.81Z"/><path class="cls-10" d="M1144.32,391.15l-2.92,29.72a2,2,0,0,1-2.06,1.89l-35.8-1.93s9.15.66,20.63-15.92l.13-.17,14.22-16.47a1.88,1.88,0,0,1,2.27-.48l2.34,1.14A2.23,2.23,0,0,1,1144.32,391.15Z"/><path class="cls-10" d="M1155.12,384.7l25.38,12.63a2.25,2.25,0,0,1,1.07,2.72l-12.21,36.05s3.26-9.15-8-26.3l-.11-.19-10.37-19.91a2.26,2.26,0,0,1,.25-2.48l1.69-2A1.88,1.88,0,0,1,1155.12,384.7Z"/><path class="cls-46" d="M1209.14,386.37l4.47,23a2.54,2.54,0,0,1-3.49,3l-27.63-13.73a2.75,2.75,0,0,1-1.44-1.94l-4-20.27a2.66,2.66,0,0,1,2-3.19l9.39-1.89C1197.86,369.41,1207.14,376.13,1209.14,386.37Z"/><path class="cls-10" d="M1152.59,371.54l18.61-21.91a1.88,1.88,0,0,1,2.71-.21l28.25,24.21s-7.12-6.32-25.58-.33l-.2.05-20.62,4.16a2,2,0,0,1-2.12-1.06l-1.29-2.39A2.25,2.25,0,0,1,1152.59,371.54Z"/><path class="cls-46" d="M1169.92,316.74l21.65,2.89a2.79,2.79,0,0,1,1.6,4.53L1172.93,348a2.38,2.38,0,0,1-2.13.84l-19.08-2.46a2.73,2.73,0,0,1-2.24-3l1.08-10.23C1151.64,322.78,1160.29,315.46,1169.92,316.74Z"/><path class="cls-10" d="M1140.22,369.86l-13.88-26.17a2.25,2.25,0,0,1,.61-2.86l29.67-21.08s-7.67,5.25-7.8,26.1c0,.07,0,.14,0,.22l-2.38,22.47a2,2,0,0,1-1.56,1.84l-2.49.54A2,2,0,0,1,1140.22,369.86Z"/><path class="cls-46" d="M1096.92,334.31l8.91-21.23a2.43,2.43,0,0,1,4.47-.17l15.12,28.47a2.91,2.91,0,0,1,.13,2.46l-7.78,18.75a2.42,2.42,0,0,1-3.34,1.31l-8.72-4.43C1096.89,355,1093,343.77,1096.92,334.31Z"/><path class="cls-10" d="M1135.47,382.65l-27.19,5.73a2,2,0,0,1-2.34-1.55L1096,349.59s2.38,9.56,20.75,16.46l.2.09,19.15,9.72a2.23,2.23,0,0,1,1.16,2.2l-.25,2.72A2,2,0,0,1,1135.47,382.65Z"/><path class="cls-46" d="M1091,414.81l-16.14-16a2.75,2.75,0,0,1,1.16-4.63l29.59-6.26a2.42,2.42,0,0,1,2.2.67l14.28,14.06a2.86,2.86,0,0,1,.17,3.85l-6.46,7.49A16.69,16.69,0,0,1,1091,414.81Z"/><path class="cls-10" d="M1144.32,391.15l-2.92,29.72a2,2,0,0,1-2.06,1.89l-35.8-1.93s9.15.66,20.63-15.92l.13-.17,14.22-16.47a1.88,1.88,0,0,1,2.27-.48l2.34,1.14A2.23,2.23,0,0,1,1144.32,391.15Z"/><path class="cls-10" d="M1155.12,384.7l25.38,12.63a2.25,2.25,0,0,1,1.07,2.72l-12.21,36.05s3.26-9.15-8-26.3l-.11-.19-10.37-19.91a2.26,2.26,0,0,1,.25-2.48l1.69-2A1.88,1.88,0,0,1,1155.12,384.7Z"/><path class="cls-46" d="M1209.14,386.37l4.47,23a2.54,2.54,0,0,1-3.49,3l-27.63-13.73a2.75,2.75,0,0,1-1.44-1.94l-4-20.27a2.66,2.66,0,0,1,2-3.19l9.39-1.89C1197.86,369.41,1207.14,376.13,1209.14,386.37Z"/><path class="cls-10" d="M1152.59,371.54l18.61-21.91a1.88,1.88,0,0,1,2.71-.21l28.25,24.21s-7.12-6.32-25.58-.33l-.2.05-20.62,4.16a2,2,0,0,1-2.12-1.06l-1.29-2.39A2.25,2.25,0,0,1,1152.59,371.54Z"/></g></g></svg>